{"title":"Elena Undone 2010 DVDrip English Klam","uid":6229610,"size":1735342233,"categoryP":"video","categoryS":"movies","magnet":"?xt=urn:btih:a951760f63749c39b3bc835092fad4ef7c5b4b48&amp;dn=Elena+Undone+2010+DVDrip+English+Klam&amp;tr=udp%3A%2F%2Ftracker.openbittorrent.com%3A80&amp;tr=udp%3A%2F%2Fopen.demonii.com%3A1337&amp;tr=udp%3A%2F%2Ftracker.coppersurfer.tk%3A6969&amp;tr=udp%3A%2F%2Fexodus.desync.com%3A6969","seeders":1,"leechers":0,"uploader":"Klambake","files":-1,"time":1299660626,"description":"With: Necar Zadegan, Traci Dinwiddie and Gary Weeks\n\nPeyton and Elena are, on the surface, diametrically opposed - one, a well-known lesbian writer, the other a mother and wife of a pastor - but when their paths cross, several times over, they feel compelled to connect. What begins as friendship quickly blossoms into something deeper. Peyton tries to extricate herself before her heart wants what it can't have. Elena can't imagine not having Peyton in her life. And despite the fact that she has never even considered kissing a woman, Elena is overwhelmed with a desire to do just that. Despite Peyton's reservations, Elena pushes the relationship into a full-blown affair. The two women fall deeply in love, both keenly aware a future together might be little more than a dream.\n\nGeneral:\n\nComplete name                    : Elena Undone\\Elena Undone.avi\nFormat                           : AVI\nFormat/Info                      : Audio Video Interleave\nFile size                        : 1.62 GiB\nDuration                         : 1h 50mn\nOverall bit rate                 : 2 085 Kbps\n\nVideo:\n\nFormat                           : MPEG-4 Visual\nFormat profile                   : Simple@L3\nFormat settings, BVOP            : No\nFormat settings, QPel            : No\nFormat settings, GMC             : No warppoints\nFormat settings, Matrix          : Default (H.263)\nCodec ID                         : XVID\nCodec ID/Hint                    : XviD\nDuration                         : 1h 50mn\nBit rate                         : 1 625 Kbps\nWidth                            : 704 pixels\nHeight                           : 394 pixels\nDisplay aspect ratio             : 16:9\nFrame rate                       : 29.970 fps\nColor space                      : YUV\nChroma subsampling               : 4:2:0\nBit depth                        : 8 bits\nScan type                        : Progressive\nBits/(Pixel*Frame)               : 0.195\nStream size                      : 1.26 GiB (78%)\nWriting library                  : XviD 1.1.2 (UTC 2006-11-01)\n\nAudio:\n\nFormat                           : AC-3\nFormat/Info                      : Audio Coding 3\nMode extension                   : CM (complete main)\nCodec ID                         : 2000\nDuration                         : 1h 50mn\nBit rate mode                    : Constant\nBit rate                         : 448 Kbps\nChannel(s)                       : 6 channels\nChannel positions                : Front: L C R, Side: L R, LFE\nSampling rate                    : 48.0 KHz\nBit depth                        : 16 bits\nStream size                      : 356 MiB (21%)\nAlignment                        : Aligned on interleaves\nInterleave, duration             : 32 ms (0.96 video frame)\n","torrent":{"xt":"urn:btih:a951760f63749c39b3bc835092fad4ef7c5b4b48","amp;dn":"Elena+Undone+2010+DVDrip+English+Klam","amp;tr":["udp%3A%2F%2Ftracker.openbittorrent.com%3A80","udp%3A%2F%2Fopen.demonii.com%3A1337","udp%3A%2F%2Ftracker.coppersurfer.tk%3A6969","udp%3A%2F%2Fexodus.desync.com%3A6969"],"infoHash":"a951760f63749c39b3bc835092fad4ef7c5b4b48","infoHashBuffer":{"type":"Buffer","data":[169,81,118,15,99,116,156,57,179,188,131,80,146,250,212,239,124,91,75,72]},"announce":[],"urlList":[]}}